# xmcd CD database file
# Copyright (C) 1997 Ti Kan
#
# Track frame offsets:
#  150
#  12409
#  23547
#  35722
#  47210
#  59560
#  72297
#  84060
#  97697
#  111247
#  123760
#  135647
#  148085
#  159460
#  171047
#  192522
#  205159
#  217747
#  231235
#  247597
#  261685
#  274925
#  292222
#  308860
#  326072
#
# Disc length: 4501 seconds
#
# Revision: 1
# Processed by: cddbd v1.4b41PL1 Copyright (c) Steve Scherf et al.
# Submitted via: CDWizzard Release:4.32
#
DISCID=6e119319
DTITLE=Ray Price  - Ray Price: Legendary Country Singers
DYEAR=1900
DGENRE=
TTITLE0=Talk to Your Heart
TTITLE1=I'll Be There (If You Ever Want Me)
TTITLE2=Release Me
TTITLE3=Crazy Arms
TTITLE4=I've Got a New Heartache
TTITLE5=Invitation to the Blues
TTITLE6=My Shoes Keep Walking Back to You
TTITLE7=City Lights
TTITLE8=Heartaches by the Number
TTITLE9=The Same Old Me
TTITLE10=I Wish I Could Fall in Love Today
TTITLE11=Heart over Mind
TTITLE12=Burning Memories
TTITLE13=Make the World Go Away
TTITLE14=Night Life
TTITLE15=One More Time
TTITLE16=Don't You Ever Get Tired of Hurting Me
TTITLE17=The Other Woman (In My Life)
TTITLE18=Touch My Heart
TTITLE19=Danny Boy
TTITLE20=Take Me As I Am (Or Let Me Go)
TTITLE21=For the Good Times
TTITLE22=I Won't Mention It Again
TTITLE23=You're the Best Thing That Ever Happened to Me
TTITLE24=Jealous Lies
EXTD=
EXTT0=Ray Price 
EXTT1=Ray Price 
EXTT2=Ray Price 
EXTT3=Ray Price 
EXTT4=Ray Price
EXTT5=Ray Price 
EXTT6=Ray Price 
EXTT7=Ray Price 
EXTT8=Ray Price 
EXTT9=Ray Price 
EXTT10=Ray Price 
EXTT11=Ray Price 
EXTT12=Ray Price 
EXTT13=Ray Price 
EXTT14=Ray Price 
EXTT15=Ray Price 
EXTT16=Ray Price 
EXTT17=Ray Price 
EXTT18=Ray Price 
EXTT19=Ray Price 
EXTT20=Ray Price 
EXTT21=Ray Price 
EXTT22=Ray Price 
EXTT23=Ray Price 
EXTT24=Ray Price 
PLAYORDER=
